<svg width="1440" height="132" viewBox="0 0 1440 132" fill="none" xmlns="http://www.w3.org/2000/svg">
<rect width="1440" height="132" fill="#F9F3E8"/>
<mask id="mask0_4996_843" style="mask-type:alpha" maskUnits="userSpaceOnUse" x="0" y="0" width="1440" height="132">
<rect width="1440" height="132" fill="#D9D9D9"/>
</mask>
<g mask="url(#mask0_4996_843)">
<path d="M-8.22559 -1612C-4.6673 -1678.82 50.7379 -1730.2 115.508 -1726.75L122.415 -1726.39C167.5 -1723.99 205.252 -1695.65 222.834 -1656.11C244.516 -1693.56 285.063 -1717.73 330.148 -1715.32L343.963 -1714.59L345.478 -1714.5C389.893 -1711.55 426.996 -1683.41 444.381 -1644.31C466.063 -1681.76 506.611 -1705.93 551.696 -1703.53L565.51 -1702.79L567.025 -1702.7C611.44 -1699.75 648.544 -1671.61 665.929 -1632.51C687.611 -1669.96 728.158 -1694.13 773.243 -1691.73L787.058 -1690.99L788.573 -1690.9C832.988 -1687.95 870.091 -1659.81 887.476 -1620.71C909.157 -1658.16 949.705 -1682.33 994.791 -1679.93L1008.61 -1679.2C1053.69 -1676.79 1091.44 -1648.46 1109.02 -1608.92C1130.71 -1646.37 1171.25 -1670.53 1216.34 -1668.13L1230.15 -1667.4C1275.24 -1665 1312.99 -1636.66 1330.57 -1597.12C1352.25 -1634.57 1392.8 -1658.74 1437.89 -1656.34L1444.79 -1655.97C1509.56 -1652.52 1559.2 -1595.54 1555.64 -1528.72L1555.27 -1521.86C1552.94 -1477.94 1528.19 -1440.68 1493.11 -1421.29C1525.9 -1398.31 1546.54 -1358.69 1544.25 -1314.82L1544.25 -1314.82L1543.51 -1300.97C1541.17 -1257.09 1516.48 -1219.87 1481.46 -1200.46C1514.22 -1177.44 1534.82 -1137.8 1532.49 -1093.92L1531.75 -1080.08L1414.46 -1086.32H1414.46L1531.75 -1080.08C1529.41 -1036.2 1504.72 -998.975 1469.69 -979.564C1502.46 -956.545 1523.06 -916.909 1520.72 -873.029L1519.99 -859.182C1517.65 -815.302 1492.95 -778.08 1457.93 -758.67C1490.69 -735.65 1511.3 -696.014 1508.96 -652.135L1508.22 -638.287L1508.13 -636.724C1505.3 -593.524 1480.77 -556.955 1446.17 -537.775C1478.93 -514.756 1499.53 -475.12 1497.2 -431.24L1496.46 -417.393L1437.81 -420.516H1437.81L1496.46 -417.393C1494.12 -373.513 1469.43 -336.291 1434.41 -316.881C1467.13 -293.885 1487.73 -254.307 1485.44 -210.481L1484.7 -196.633L1484.61 -195.069C1481.78 -151.824 1457.2 -115.222 1422.54 -96.0596C1455.36 -73.0508 1476.01 -33.3783 1473.67 10.5479L1473.31 17.4053C1469.75 84.2246 1414.34 135.609 1349.57 132.16L1342.67 131.793L1341.15 131.702C1296.74 128.754 1259.63 100.61 1242.25 61.5146C1220.56 98.9628 1180.02 123.131 1134.93 120.73L1121.12 119.995L1124.35 59.3936L1125.04 46.4277L1121.12 119.995C1076.03 117.594 1038.28 89.2556 1020.7 49.7158C999.017 87.1646 958.47 111.333 913.385 108.933L899.571 108.197L898.056 108.106C853.64 105.159 816.536 77.0142 799.151 37.918C777.47 75.3667 736.923 99.5355 691.838 97.1348L678.023 96.3994L676.508 96.3086C632.093 93.3607 594.988 65.2169 577.604 26.1211C555.922 63.5694 515.375 87.7387 470.29 85.3379L456.476 84.6016C411.39 82.2006 373.639 53.8622 356.057 14.3223C334.375 51.7713 293.828 75.9409 248.742 73.54L234.929 72.8037L233.413 72.7139C188.998 69.7661 151.894 41.622 134.509 2.52637C112.827 39.9744 72.2804 64.1429 27.1953 61.7422L20.2881 61.374C-44.482 57.9249 -94.1168 0.946488 -90.5586 -65.873L-90.1934 -72.7295C-87.8543 -116.655 -63.1098 -153.911 -28.0283 -173.304C-60.8182 -196.289 -81.458 -235.904 -79.168 -279.776L-78.4307 -293.624C-76.094 -337.503 -51.3993 -374.727 -16.377 -394.137C-49.1396 -417.157 -69.7417 -456.791 -67.4053 -500.67L-66.668 -514.519C-64.3313 -558.397 -39.6363 -595.62 -4.61426 -615.03C-37.3771 -638.05 -57.9782 -677.685 -55.6416 -721.564L-54.9043 -735.413L3.74023 -732.29V-732.291L-54.9043 -735.413C-52.5675 -779.292 -27.8735 -816.515 7.14844 -835.925C-25.6143 -858.945 -46.2155 -898.58 -43.8789 -942.459L-43.1416 -956.307L-43.0488 -957.87C-40.2161 -1001.07 -15.6937 -1037.64 18.9121 -1056.82C-13.8509 -1079.84 -34.4528 -1119.47 -32.1162 -1163.35L-31.3789 -1177.2L27.2656 -1174.08H27.2666V-1174.08L-31.3789 -1177.2C-29.0423 -1221.08 -4.34761 -1258.3 30.6748 -1277.71C-2.05458 -1300.71 -22.6478 -1340.29 -20.3604 -1384.11L-19.623 -1397.96L-19.5303 -1399.53C-16.6907 -1442.85 7.86873 -1479.42 42.5186 -1498.55C9.70909 -1521.56 -10.9293 -1561.23 -8.59082 -1605.14L-8.22559 -1612ZM216.842 -1543.6C209.509 -1530.94 200.02 -1519.79 188.927 -1510.68C181.403 -1503.4 172.964 -1497.13 163.823 -1492.08C196.647 -1469.07 217.296 -1429.4 214.957 -1385.47L214.226 -1371.76C211.889 -1327.88 187.194 -1290.65 152.171 -1271.24C184.935 -1248.22 205.538 -1208.59 203.201 -1164.71L202.464 -1150.86C200.127 -1106.98 175.431 -1069.76 140.409 -1050.35C173.173 -1027.33 193.774 -987.695 191.438 -943.815L190.7 -929.968C188.364 -886.089 163.669 -848.866 128.646 -829.456C161.41 -806.436 182.011 -766.8 179.675 -722.921L121.03 -726.044H121.029L179.675 -722.921L178.938 -709.073C176.601 -665.194 151.905 -627.972 116.883 -608.562C149.646 -585.542 170.249 -545.906 167.912 -502.026L167.175 -488.179C164.838 -444.299 140.143 -407.077 105.12 -387.667C137.884 -364.647 158.486 -325.011 156.149 -281.132L155.412 -267.284L155.41 -267.285C153.028 -223.417 128.298 -186.219 93.252 -166.846C101.805 -160.85 109.531 -153.723 116.239 -145.684C126.302 -135.444 134.554 -123.354 140.5 -109.982C161.939 -147.011 201.822 -171.054 246.299 -169.269L247.815 -169.198L261.63 -168.463C306.715 -166.062 344.466 -137.724 362.048 -98.1846C383.487 -135.213 423.37 -159.258 467.847 -157.472L469.363 -157.4L483.177 -156.665C528.262 -154.264 566.013 -125.927 583.596 -86.3877C605.034 -123.415 644.917 -147.46 689.394 -145.674L690.91 -145.603L704.725 -144.867C749.81 -142.466 787.56 -114.128 805.143 -74.5889C826.581 -111.617 866.464 -135.662 910.941 -133.876L912.458 -133.805L926.271 -133.069C971.357 -130.668 1009.11 -102.331 1026.69 -62.791C1048.37 -100.24 1088.92 -124.409 1134 -122.008L1130.78 -61.5078L1130.78 -61.5068L1134 -122.008L1147.82 -121.271C1192.9 -118.871 1230.66 -90.5333 1248.24 -50.9941C1255.57 -63.6565 1265.06 -74.8012 1276.15 -83.9131C1283.67 -91.1957 1292.11 -97.4634 1301.26 -102.518C1268.43 -125.527 1247.79 -165.199 1250.12 -209.124L1250.86 -222.972H1250.86C1253.24 -266.793 1277.92 -303.96 1312.91 -323.351C1280.15 -346.37 1259.54 -386.005 1261.88 -429.884L1262.62 -443.732C1264.95 -487.611 1289.65 -524.835 1324.67 -544.245C1291.91 -567.265 1271.31 -606.9 1273.64 -650.778L1274.38 -664.627C1276.72 -708.506 1301.41 -745.728 1336.43 -765.139C1303.67 -788.159 1283.07 -827.794 1285.41 -871.673L1286.14 -885.521C1288.48 -929.399 1313.17 -966.623 1348.2 -986.033C1315.43 -1009.05 1294.83 -1048.69 1297.17 -1092.57L1297.91 -1106.42C1300.24 -1150.29 1324.94 -1187.52 1359.96 -1206.93C1327.2 -1229.95 1306.6 -1269.58 1308.93 -1313.46L1309.67 -1327.31H1309.67C1312.05 -1371.18 1336.78 -1408.38 1371.83 -1427.75C1363.27 -1433.74 1355.55 -1440.87 1348.84 -1448.91C1338.78 -1459.15 1330.52 -1471.24 1324.58 -1484.61C1303.14 -1447.58 1263.26 -1423.54 1218.78 -1425.33L1217.27 -1425.4L1203.45 -1426.13C1158.37 -1428.53 1120.61 -1456.87 1103.03 -1496.41C1081.35 -1458.96 1040.8 -1434.79 995.718 -1437.19L981.904 -1437.93C936.819 -1440.33 899.067 -1468.67 881.484 -1508.21C860.046 -1471.18 820.163 -1447.13 775.687 -1448.92L774.171 -1448.99L760.356 -1449.73C715.271 -1452.13 677.52 -1480.47 659.938 -1520C638.256 -1482.56 597.708 -1458.39 552.623 -1460.79L538.809 -1461.52C493.723 -1463.93 455.972 -1492.26 438.39 -1531.8C416.951 -1494.78 377.069 -1470.73 332.592 -1472.52L331.075 -1472.59L317.262 -1473.32C272.176 -1475.72 234.424 -1504.06 216.842 -1543.6ZM85.9111 -1170.96L126.446 -1168.8L82.417 -1171.14L85.9111 -1170.96ZM1004.58 -1603.63L1002.16 -1558.19L999.272 -1503.95L1002.6 -1566.47L1004.58 -1603.63Z" fill="#FFDE45"/>
</g>
</svg>
