<svg width="3600" height="330" viewBox="0 0 3600 330" fill="none" xmlns="http://www.w3.org/2000/svg">
<rect width="3600" height="330" transform="matrix(-1 0 0 1 3600 0)" fill="white"/>
<path d="M0 238.951C49.0189 290.782 115.648 324.454 189.14 330H233.631L243.338 329.483L245.234 329.376C357.109 322.685 450.677 252.082 494.386 153.789C548.591 247.409 649.959 307.83 762.672 301.828L797.207 299.989L799.103 299.882C910.977 293.191 1004.55 222.589 1048.25 124.296C1102.46 217.916 1203.83 278.336 1316.54 272.334L1351.08 270.495L1352.97 270.388C1464.85 263.697 1558.41 193.094 1602.12 94.8008C1656.33 188.421 1757.7 248.842 1870.41 242.84L1904.94 241.001L1906.84 240.894C2018.71 234.203 2112.28 163.6 2155.99 65.3066C2210.2 158.927 2311.57 219.348 2424.28 213.346L2458.81 211.506L2461.45 211.354C2573 204.395 2666.25 133.888 2709.86 35.8125C2764.07 129.433 2865.43 189.854 2978.15 183.852L3012.68 182.012L3014.58 181.905C3126.45 175.214 3220.02 104.611 3263.73 6.31836C3317.93 99.9386 3419.3 160.36 3532.02 154.357L3549.28 153.438C3566.66 152.512 3583.61 150.042 3600 146.168V0H0V238.951Z" fill="#F9F3E8"/>
</svg>
