<svg width="2017" height="330" viewBox="0 0 2017 330" fill="none" xmlns="http://www.w3.org/2000/svg">
<rect width="2017" height="330" fill="#F9F3E8"/>
<mask id="mask0_5541_1123" style="mask-type:alpha" maskUnits="userSpaceOnUse" x="0" y="0" width="2017" height="330">
<rect width="2017" height="330" fill="#D9D9D9"/>
</mask>
<g mask="url(#mask0_5541_1123)">
<path d="M-1373.45 -4032.2C-1363.63 -4197.65 -1226.61 -4324.72 -1066.13 -4317.23L-1064.23 -4317.14L-1046.96 -4316.22L-1045.07 -4316.11C-933.194 -4309.42 -839.627 -4238.82 -795.917 -4140.52C-741.712 -4234.14 -640.344 -4294.56 -527.631 -4288.56L-493.095 -4286.72C-380.383 -4280.72 -286.005 -4209.88 -242.049 -4111.03C-187.844 -4204.65 -86.4748 -4265.07 26.238 -4259.07L60.7732 -4257.23C173.486 -4251.22 267.864 -4180.38 311.82 -4081.53C366.025 -4175.15 467.394 -4235.57 580.107 -4229.57L614.642 -4227.73L616.538 -4227.63C728.412 -4220.93 821.979 -4150.33 865.688 -4052.04C919.893 -4145.66 1021.26 -4206.08 1133.98 -4200.08L1168.51 -4198.24C1281.22 -4192.24 1375.6 -4121.39 1419.56 -4022.55C1473.76 -4116.17 1575.13 -4176.59 1687.84 -4170.58L1722.38 -4168.74L1724.28 -4168.64C1836.15 -4161.95 1929.72 -4091.34 1973.43 -3993.05C2027.63 -4086.67 2129 -4147.09 2241.71 -4141.09L2258.98 -4140.17L2260.88 -4140.06C2421.87 -4130.43 2544.96 -3988.45 2536.1 -3822.05L2535.18 -3804.91C2529.34 -3695.1 2467.47 -3601.96 2379.77 -3553.48C2461.75 -3496.01 2513.34 -3396.98 2507.62 -3287.3L2507.62 -3287.29L2505.78 -3252.67L2505.67 -3250.72C2499.2 -3141.87 2437.68 -3049.63 2350.64 -3001.39C2432.55 -2943.84 2484.05 -2844.76 2478.21 -2735.06L2476.37 -2700.44C2470.53 -2590.74 2408.79 -2497.68 2321.24 -2449.16C2403.14 -2391.61 2454.65 -2292.52 2448.81 -2182.82L2446.96 -2148.2C2441.12 -2038.5 2379.38 -1945.45 2291.83 -1896.92C2373.74 -1839.37 2425.24 -1740.28 2419.4 -1630.59L2417.55 -1595.97L2124.33 -1611.58L2123.79 -1611.61L2270.94 -1603.77H2270.94L2417.55 -1595.97C2411.71 -1486.27 2349.98 -1393.21 2262.42 -1344.69C2344.33 -1287.14 2395.83 -1188.05 2389.99 -1078.35L2388.15 -1043.73C2382.31 -934.033 2320.57 -840.975 2233.01 -792.45C2314.84 -734.959 2366.32 -636.015 2360.6 -526.451L2360.6 -526.451L2358.76 -491.83L2358.65 -489.874C2352.17 -380.911 2290.53 -288.591 2203.34 -240.397C2285.4 -182.874 2337.02 -83.6927 2331.18 26.1218L2330.26 43.2634C2321.4 209.66 2183.94 337.771 2022.83 330.247L2020.93 330.152L2003.66 329.232L2001.77 329.125C1889.89 322.434 1796.32 251.832 1752.61 153.539C1698.41 247.159 1597.04 307.579 1484.33 301.577L1449.79 299.738L1457.87 148.074L1457.86 148.292L1449.79 299.738C1337.08 293.736 1242.7 222.892 1198.75 124.045C1144.54 217.665 1043.17 278.085 930.461 272.083L895.925 270.244L894.03 270.136C782.155 263.446 688.587 192.843 644.878 94.5495C590.673 188.17 489.305 248.591 376.592 242.589L342.056 240.75L358.166 -61.7532L363.529 -162.473L342.056 240.75C229.343 234.747 134.964 163.904 91.0085 65.0563C36.8033 158.676 -64.5639 219.096 -177.277 213.094L-211.812 211.256L-213.708 211.148C-325.583 204.457 -419.15 133.854 -462.86 35.5612C-517.065 129.182 -618.433 189.602 -731.146 183.6L-765.681 181.761L-767.576 181.654C-879.451 174.963 -973.019 104.361 -1016.73 6.06805C-1070.93 99.688 -1172.3 160.108 -1285.01 154.106L-1302.28 153.186C-1464.21 144.563 -1588.29 2.11785 -1579.4 -164.931L-1578.48 -182.073C-1572.64 -291.886 -1510.78 -385.026 -1423.07 -433.508C-1505.05 -490.972 -1556.65 -590.009 -1550.92 -699.689L-1549.08 -734.309L-1548.97 -736.265C-1542.5 -845.112 -1480.98 -937.353 -1393.94 -985.59C-1475.85 -1043.14 -1527.36 -1142.23 -1521.51 -1251.93L-1519.67 -1286.54C-1513.83 -1396.24 -1452.09 -1489.3 -1364.54 -1537.83C-1446.44 -1595.38 -1497.95 -1694.46 -1492.11 -1804.16L-1490.26 -1838.78C-1484.42 -1948.48 -1422.69 -2041.54 -1335.13 -2090.06C-1417.04 -2147.61 -1468.54 -2246.7 -1462.7 -2356.4L-1460.86 -2391.02C-1455.01 -2500.71 -1393.28 -2593.77 -1305.72 -2642.3C-1387.63 -2699.85 -1439.13 -2798.94 -1433.29 -2908.63L-1431.45 -2943.25C-1425.61 -3052.95 -1363.87 -3146.01 -1276.32 -3194.53C-1358.14 -3252.03 -1409.62 -3350.97 -1403.9 -3460.53L-1402.06 -3495.15C-1396.2 -3605.16 -1334.37 -3698.21 -1246.71 -3746.63C-1328.73 -3804.16 -1380.32 -3903.32 -1374.48 -4013.1L-1373.56 -4030.25L-1373.45 -4032.2ZM1458.86 129.539L1465.9 -2.76496L1465.98 -4.21418L1458.86 129.539ZM-810.896 -3859.25C-829.221 -3827.6 -852.936 -3799.74 -880.658 -3776.96C-899.473 -3758.75 -920.579 -3743.08 -943.442 -3730.44C-861.383 -3672.92 -809.763 -3573.74 -815.611 -3463.92L-817.453 -3429.3L-817.455 -3429.3C-823.405 -3319.75 -885.104 -3226.83 -972.571 -3178.36C-890.663 -3120.81 -839.158 -3021.72 -844.999 -2912.02L-846.843 -2877.4C-852.685 -2767.71 -914.422 -2674.65 -1001.98 -2626.12C-920.07 -2568.57 -868.565 -2469.49 -874.407 -2359.79L-876.25 -2325.17C-882.092 -2215.47 -943.829 -2122.41 -1031.39 -2073.89C-949.478 -2016.34 -897.972 -1917.25 -903.814 -1807.55L-905.658 -1772.93C-911.499 -1663.23 -973.236 -1570.18 -1060.79 -1521.65C-978.884 -1464.1 -927.38 -1365.01 -933.221 -1255.32L-935.065 -1220.7C-940.906 -1111 -1002.64 -1017.94 -1090.2 -969.415C-1008.29 -911.866 -956.787 -812.777 -962.628 -703.079L-964.472 -668.46L-964.474 -668.461C-970.429 -558.793 -1032.25 -465.795 -1119.87 -417.362C-1098.48 -402.367 -1079.16 -384.543 -1062.38 -364.437C-1037.23 -338.844 -1016.61 -308.626 -1001.75 -275.207C-947.849 -368.302 -847.312 -428.568 -735.36 -423.339L-733.463 -423.244L-698.928 -421.406C-586.215 -415.403 -491.837 -344.56 -447.881 -245.713C-393.98 -338.808 -293.444 -399.073 -181.491 -393.845L-179.595 -393.75L-145.06 -391.911C-32.347 -385.909 62.031 -315.066 105.987 -216.218C160.192 -309.839 261.561 -370.258 374.274 -364.256L408.809 -362.417C521.522 -356.415 615.9 -285.572 659.856 -186.725C713.757 -279.819 814.294 -340.085 926.246 -334.857L928.142 -334.762L962.677 -332.923C1075.39 -326.921 1169.77 -256.077 1213.72 -157.23C1267.93 -250.85 1369.3 -311.27 1482.01 -305.268L1516.55 -303.429C1629.26 -297.427 1723.64 -226.584 1767.59 -127.737C1785.92 -159.387 1809.63 -187.243 1837.36 -210.02C1856.17 -228.232 1877.28 -243.904 1900.14 -256.542C1818.08 -314.065 1766.46 -413.246 1772.31 -523.06L1774.15 -557.68H1774.15C1780.1 -667.232 1841.8 -760.149 1929.27 -808.625C1847.36 -866.175 1795.86 -965.262 1801.7 -1074.96L1803.54 -1109.58C1809.38 -1219.28 1871.12 -1312.34 1958.68 -1360.86C1876.77 -1418.41 1825.26 -1517.5 1831.11 -1627.2L1832.95 -1661.82C1838.79 -1771.51 1900.53 -1864.57 1988.08 -1913.1C1906.18 -1970.65 1854.67 -2069.73 1860.51 -2179.43L1862.36 -2214.05C1868.2 -2323.75 1929.93 -2416.81 2017.49 -2465.33C1935.58 -2522.88 1884.08 -2621.97 1889.92 -2731.67L1891.76 -2766.29C1897.6 -2875.99 1959.34 -2969.04 2046.9 -3017.57C1964.99 -3075.12 1913.49 -3174.21 1919.33 -3283.9L1921.17 -3318.52H1921.17C1927.13 -3428.19 1988.95 -3521.19 2076.57 -3569.62C2055.18 -3584.62 2035.85 -3602.44 2019.08 -3622.55C1993.93 -3648.14 1973.31 -3678.36 1958.45 -3711.78C1904.24 -3618.16 1802.87 -3557.74 1690.16 -3563.74L1655.63 -3565.58C1542.91 -3571.58 1448.53 -3642.42 1404.58 -3741.27C1350.68 -3648.18 1250.14 -3587.91 1138.19 -3593.14L1136.29 -3593.23L1101.76 -3595.07C989.045 -3601.07 894.667 -3671.92 850.711 -3770.77C796.506 -3677.15 695.138 -3616.72 582.425 -3622.73L547.889 -3624.57C435.176 -3630.57 340.798 -3701.41 296.842 -3800.26C242.941 -3707.16 142.405 -3646.9 30.4528 -3652.13L28.5564 -3652.22L-5.9788 -3654.06C-118.692 -3660.06 -213.071 -3730.91 -257.027 -3829.75C-311.232 -3736.13 -412.6 -3675.71 -525.313 -3681.72L-517.258 -3832.97L-517.259 -3832.97L-525.313 -3681.72L-559.848 -3683.55C-672.561 -3689.56 -766.94 -3760.4 -810.896 -3859.25ZM2244.87 -3820.37L2254.56 -3819.85L2241.96 -3820.52L2244.87 -3820.37ZM-509.204 -3984.22L-514.13 -3891.72L-509.037 -3987.35L-509.204 -3984.22Z" fill="#FFDE45"/>
</g>
</svg>
