<svg width="2017" height="330" viewBox="0 0 2017 330" fill="none" xmlns="http://www.w3.org/2000/svg">
<rect width="2017" height="330" transform="matrix(-1 0 0 1 2017 0)" fill="white"/>
<path d="M0 329.662L3.33691 329.484L5.2334 329.377C117.108 322.686 210.676 252.083 254.385 153.79C308.59 247.411 409.958 307.831 522.671 301.829L557.206 299.99L559.102 299.883C670.976 293.192 764.545 222.59 808.254 124.297C862.459 217.917 963.827 278.337 1076.54 272.335L1111.07 270.496L1112.97 270.389C1224.85 263.698 1318.41 193.095 1362.12 94.8018C1416.33 188.422 1517.7 248.843 1630.41 242.841L1664.94 241.002L1666.84 240.895C1778.71 234.204 1872.28 163.601 1915.99 65.3086C1940.88 108.288 1975.7 144.267 2017 170.038V0H0V329.662Z" fill="#F9F3E8"/>
</svg>
