<svg width="232" height="220" viewBox="0 0 232 220" fill="none" xmlns="http://www.w3.org/2000/svg">
<path d="M61.1422 196.311C61.5255 196.975 61.5876 197.521 61.3474 197.938C61.1576 198.047 60.8627 198.369 60.4137 198.907C60.5366 205.563 62.8145 209.509 67.2473 210.743C69.6339 211.414 71.8773 211.004 73.9856 209.483C77.1554 207.653 79.0483 205.978 79.6644 204.459C80.1528 203.595 80.8208 203.437 81.6195 203.988C82.4481 204.546 83.2416 205.176 84.0301 205.884C84.8186 206.592 85.6209 207.368 86.4751 208.19C87.3293 209.012 87.9732 209.601 88.4149 209.928C90.8672 212.028 93.5932 213.944 96.6149 215.715C102.245 218.585 107.766 219.95 113.125 219.764C119.487 219.606 125 217.713 129.657 214.164C134.304 210.596 137.929 205.873 140.495 200.016C140.754 199.589 141.049 199.267 141.429 199.047L141.713 198.883C142.224 198.891 142.564 198.822 142.735 198.723C148.755 201.393 153.688 202.617 157.555 202.433C162.926 202.266 167.81 201.039 172.231 198.79C178.024 196.331 181.803 192.531 183.559 187.42C184.955 182.517 185.307 177.078 184.545 171.068C184.461 169.65 185.005 169.058 186.117 169.276C197.916 171.214 206.361 167.957 211.422 159.496C213.774 155.812 214.637 151.52 214.048 146.599C213.843 144.973 213.456 143.426 212.89 142.007C212.325 140.589 211.595 138.886 210.692 136.929C209.809 134.96 209.115 133.54 208.6 132.648L212.226 137.788C214.783 138.36 213.785 138.911 216.231 138.764C216.611 138.544 217.165 138.452 217.92 138.446C218.657 138.45 219.23 138.347 219.61 138.128C222.043 137.608 224.213 136.634 226.143 135.241C229.669 132.32 231.514 128.195 231.666 122.847C231.817 117.499 230.283 112.694 227.053 108.413C225.414 106.451 223.659 104.682 221.78 103.137C221.206 102.583 220.408 102.032 219.335 101.489C217.897 100.27 216.919 99.6713 216.408 99.6629C216.098 99.5638 215.838 99.3341 215.652 99.0116C215.466 98.6892 215.397 98.3499 215.466 98.0316C218.744 92.9269 220.253 88.2625 220.047 84.0057C220.33 78.8853 219.186 73.7036 216.653 68.4389C214.422 63.3032 210.808 59.1929 205.802 56.0892C200.807 53.0044 196.209 52.4475 192.714 55.9067C192.164 56.2245 192.107 56.9149 191.844 56.4596C191.402 56.133 191.311 55.7557 191.559 55.3089C192.978 53.9083 194.394 53.9505 196.064 52.9861L197.121 49.4679C197 49.2592 196.993 48.8082 197.101 48.1637C197.229 47.5083 197.328 47.0214 197.367 46.6952C197.352 44.959 196.56 43.3678 195.002 41.9405C193.231 39.7507 191.513 38.2644 189.827 37.4926C189.385 37.1659 186.726 36.8552 184.901 36.7198C184.118 39.2206 183.914 41.0583 182.065 42.9854C181.817 43.4322 181.865 43.9102 181.358 43.4697C180.851 43.0292 180.726 42.5951 180.975 42.1483C183.18 36.4997 183.043 30.433 180.556 23.9779C178.139 17.2047 174.467 11.2823 169.569 6.21903C164.924 1.59198 159.484 -0.0723199 153.245 1.17723C146.887 2.21813 142.783 5.01719 140.946 9.59343C140.818 10.2489 140.391 10.6476 139.595 10.8035C138.829 10.9675 138.224 10.7095 137.852 10.0646C134.078 5.23777 129.937 2.79836 125.438 2.76533C122.943 2.73911 120.003 4.30993 116.578 7.45088C115.71 8.5337 115.072 9.35729 114.623 9.89469C114.076 11.0955 113.234 11.1267 112.098 10.0371C106.639 4.43844 101.312 2.5318 96.1388 4.35506C93.2866 5.42011 90.9848 7.48246 89.2715 10.5202C88.5933 11.4934 88.0122 12.9417 87.4874 14.838C86.9735 16.7533 86.4764 18.1279 85.9691 19.0025C85.4223 20.2034 84.6456 20.3483 83.6308 19.4673C80.547 17.1506 76.0813 16.5169 70.2337 17.5663C65.2468 18.3969 60.9243 20.159 57.2661 22.8527C53.0386 25.8752 50.4865 29.8272 49.6019 34.7386C49.2376 36.6939 49.2019 39.2183 49.4619 42.2549C49.838 43.7829 49.9439 46.3772 49.9476 47.2603C52.8883 48.4963 55.32 48.9385 57.0321 51.4655C57.284 51.9018 57.2584 52.2959 56.9525 52.5989C56.6386 52.9319 56.3401 53.0284 56.0188 52.9104C55.0851 52.5643 53.9082 51.9286 52.4883 51.0034C51.0873 50.0671 49.9104 49.4315 48.9577 49.0964C47.0822 48.4341 44.8352 47.9611 42.2004 47.7372C37.0894 47.4761 32.3544 48.743 28.0063 51.5568C23.4875 54.4693 20.0849 58.4823 17.7877 63.577C16.078 67.4978 16.4885 73.3812 19.06 81.2542C19.374 82.2363 19.2688 83.1063 18.6958 83.8671C18.1417 84.6169 17.6569 83.0759 16.7341 82.7488C13.6146 81.6414 10.8245 83.9098 8.9279 86.0164C7.04227 88.142 6.2138 90.8713 6.41541 94.245C6.83317 99.2644 9.74257 104.742 15.1626 110.667C17.4908 111.675 19.3371 112.506 20.7015 113.159C21.0227 113.277 20.7059 112.904 20.6183 113.41C20.5307 113.916 19.2064 113.112 18.6954 113.104C17.9325 112.659 8.98373 115.701 5.93809 118.623C2.21429 122.518 0.552862 127.574 0.904962 133.795C1.07453 139.261 3.3313 145.318 7.69718 152.003C12.0631 158.688 17.0224 162.325 22.5751 162.912C23.3774 163.031 24.0695 163.441 24.6025 164.145C25.1464 164.867 25.2581 165.587 24.9406 166.352C23.7347 171.145 23.9261 175.992 25.5258 180.91C27.1255 185.829 29.8743 189.933 33.7641 193.251C37.3516 196.44 41.5115 198.034 46.3108 198.501C51.9584 199.034 61.2262 196.237 61.2262 196.237L61.1422 196.311Z" fill="#F9F3E8"/>
</svg>
