<svg width="28" height="28" viewBox="0 0 28 28" fill="none" xmlns="http://www.w3.org/2000/svg">
<path d="M11.8711 16.2499C11.8711 16.5254 11.794 16.7947 11.6496 17.0238C11.5052 17.2528 11.2999 17.4314 11.0597 17.5368C10.8195 17.6422 10.5552 17.6698 10.3002 17.616C10.0453 17.5623 9.81104 17.4296 9.62721 17.2348C9.44338 17.0401 9.31819 16.7919 9.26748 16.5217C9.21676 16.2515 9.24279 15.9714 9.34228 15.7169C9.44176 15.4624 9.61024 15.2449 9.8264 15.0918C10.0426 14.9388 10.2967 14.8571 10.5567 14.8571C10.9053 14.8571 11.2396 15.0038 11.4861 15.265C11.7326 15.5263 11.8711 15.8805 11.8711 16.2499ZM18.4433 14.8571C18.1834 14.8571 17.9292 14.9388 17.7131 15.0918C17.4969 15.2449 17.3284 15.4624 17.2289 15.7169C17.1295 15.9714 17.1034 16.2515 17.1541 16.5217C17.2049 16.7919 17.3301 17.0401 17.5139 17.2348C17.6977 17.4296 17.9319 17.5623 18.1869 17.616C18.4419 17.6698 18.7062 17.6422 18.9464 17.5368C19.1865 17.4314 19.3918 17.2528 19.5363 17.0238C19.6807 16.7947 19.7578 16.5254 19.7578 16.2499C19.7578 15.8805 19.6193 15.5263 19.3728 15.265C19.1263 15.0038 18.7919 14.8571 18.4433 14.8571ZM25.9685 16.7142C25.7377 16.8235 25.4874 16.8789 25.2346 16.8767C24.8346 16.8776 24.447 16.7297 24.1393 16.4589V21.3571C24.1393 22.5885 23.6776 23.7694 22.856 24.6401C22.0343 25.5108 20.9198 26 19.7578 26H9.24222C8.08018 26 6.96573 25.5108 6.14404 24.6401C5.32235 23.7694 4.86073 22.5885 4.86073 21.3571V16.4589C4.55302 16.7297 4.16539 16.8776 3.76536 16.8767C3.51257 16.8789 3.26228 16.8235 3.03146 16.7142C2.67037 16.5452 2.37464 16.2505 2.19334 15.8789C2.01204 15.5074 1.95605 15.0813 2.03468 14.6714L3.83109 4.51505C3.87625 4.26678 3.96849 4.0308 4.10222 3.8214C4.23595 3.61199 4.40839 3.43353 4.6091 3.2968C4.80982 3.16007 5.03463 3.06793 5.26993 3.02594C5.50522 2.98396 5.74611 2.99301 5.97801 3.05255L11.9806 4.64273H17.0194L23.022 3.05255C23.2539 2.99301 23.4948 2.98396 23.7301 3.02594C23.9654 3.06793 24.1902 3.16007 24.3909 3.2968C24.5916 3.43353 24.764 3.61199 24.8978 3.8214C25.0315 4.0308 25.1238 4.26678 25.1689 4.51505L26.9653 14.6714C27.0439 15.0813 26.988 15.5074 26.8067 15.8789C26.6254 16.2505 26.3296 16.5452 25.9685 16.7142ZM22.3867 21.3571V14.1606L16.7017 6.49989H12.2983L6.61333 14.1606V21.3571C6.61621 22.095 6.89411 22.8018 7.3865 23.3235C7.87889 23.8453 8.54588 24.1398 9.24222 24.1428H13.6237V22.6687L12.123 21.0901C11.9833 20.9097 11.9119 20.6807 11.9227 20.4476C11.9335 20.2144 12.0258 19.9939 12.1815 19.8289C12.3373 19.6638 12.5454 19.5661 12.7654 19.5546C12.9854 19.5432 13.2015 19.6189 13.3718 19.7669L14.5 20.9741L15.6282 19.7669C15.7985 19.6189 16.0146 19.5432 16.2346 19.5546C16.4546 19.5661 16.6627 19.6638 16.8185 19.8289C16.9742 19.9939 17.0665 20.2144 17.0773 20.4476C17.0881 20.6807 17.0167 20.9097 16.877 21.0901L15.3763 22.6687V24.1428H19.7578C20.4541 24.1398 21.1211 23.8453 21.6135 23.3235C22.1059 22.8018 22.3838 22.095 22.3867 21.3571Z" fill="#FF6D33"/>
</svg>
