<svg width="28" height="28" viewBox="0 0 28 28" fill="none" xmlns="http://www.w3.org/2000/svg">
<path d="M23.5996 8.39151C23.4894 8.44344 23.3906 8.51665 23.3089 8.60693C23.2272 8.69722 23.1641 8.80278 23.1234 8.91754C23.0826 9.03231 23.065 9.154 23.0714 9.27562C23.0779 9.39723 23.1084 9.51636 23.1611 9.62614C24.2403 11.8856 24.4466 14.4642 23.7403 16.8665C23.0341 19.2688 21.4652 21.3255 19.3349 22.6413C17.2047 23.9572 14.6634 24.4395 12.1993 23.9956C9.73507 23.5518 7.5218 22.213 5.98459 20.2364C4.44739 18.2599 3.69466 15.785 3.87102 13.2873C4.04738 10.7895 5.14038 8.44499 6.94006 6.7041C8.73974 4.96321 11.1192 3.94872 13.6213 3.85552C16.1234 3.76232 18.5717 4.59698 20.4959 6.19917L17.8652 8.82997C16.5565 7.86499 14.9321 7.42893 13.3161 7.6088C11.7001 7.78868 10.2113 8.57126 9.1468 9.8004C8.08228 11.0295 7.5203 12.6149 7.57297 14.2401C7.62565 15.8653 8.28911 17.4109 9.43098 18.5686C10.3569 19.4943 11.5422 20.1168 12.8299 20.3537C14.1175 20.5906 15.4467 20.4307 16.6415 19.8953C17.8362 19.3598 18.8401 18.474 19.5202 17.3551C20.2003 16.2363 20.5244 14.9372 20.4497 13.63C20.4438 13.5093 20.414 13.3908 20.3619 13.2817C20.3098 13.1726 20.2366 13.0749 20.1464 12.9943C20.0562 12.9138 19.9508 12.852 19.8365 12.8126C19.7222 12.7731 19.6012 12.7568 19.4805 12.7646C19.3593 12.7706 19.2404 12.8003 19.1306 12.8523C19.0209 12.9042 18.9225 12.9773 18.841 13.0673C18.7596 13.1574 18.6967 13.2626 18.6559 13.377C18.6152 13.4913 18.5974 13.6126 18.6036 13.7339C18.6537 14.5893 18.4647 15.4418 18.0577 16.1959C17.6507 16.95 17.0419 17.5759 16.2993 18.0035C15.5568 18.4311 14.7098 18.6435 13.8534 18.617C12.9969 18.5904 12.1648 18.3259 11.4501 17.8532L14.2192 15.0839L18.569 10.7338L25.7341 3.5799C25.8813 3.40055 25.9565 3.17285 25.9451 2.94111C25.9337 2.70936 25.8366 2.49014 25.6725 2.32607C25.5085 2.16201 25.2893 2.06483 25.0575 2.05345C24.8258 2.04207 24.5981 2.1173 24.4188 2.26449L21.8112 4.88376C19.5149 2.91807 16.5614 1.89145 13.5411 2.0091C10.5207 2.12676 7.65604 3.38002 5.51962 5.51839C4.40397 6.631 3.51881 7.95282 2.91485 9.40813C2.31089 10.8634 2 12.4236 2 13.9993C2 15.5749 2.31089 17.1351 2.91485 18.5904C3.51881 20.0457 4.40397 21.3676 5.51962 22.4802C6.63217 23.5959 7.95391 24.4811 9.40913 25.0851C10.8643 25.6891 12.4244 26 14 26C15.5756 26 17.1357 25.6891 18.5909 25.0851C20.0461 24.4811 21.3679 23.5959 22.4804 22.4802C24.2353 20.7272 25.404 18.4734 25.8255 16.029C26.247 13.5845 25.9006 11.0695 24.8341 8.82997C24.7822 8.71981 24.709 8.62102 24.6187 8.53928C24.5284 8.45754 24.4229 8.39448 24.3081 8.35372C24.1934 8.31297 24.0717 8.29532 23.9501 8.30181C23.8285 8.30829 23.7093 8.33878 23.5996 8.39151Z" fill="#FF6D33"/>
</svg>
