<svg width="21" height="21" viewBox="0 0 21 21" fill="none" xmlns="http://www.w3.org/2000/svg">
<path d="M10.5 0C16.299 0 21 4.70101 21 10.5C21 16.299 16.299 21 10.5 21C4.70101 21 0 16.299 0 10.5C0 4.70101 4.70101 0 10.5 0ZM14.582 6.41797C14.1915 6.02744 13.5585 6.02744 13.168 6.41797L10.5 9.08594L7.83203 6.41797C7.44151 6.02744 6.80849 6.02744 6.41797 6.41797C6.02744 6.80849 6.02744 7.44151 6.41797 7.83203L9.08594 10.5L6.41797 13.168C6.02744 13.5585 6.02744 14.1915 6.41797 14.582C6.8085 14.9725 7.44153 14.9725 7.83203 14.582L10.5 11.9141L13.168 14.582C13.5585 14.9725 14.1915 14.9725 14.582 14.582C14.9725 14.1915 14.9725 13.5585 14.582 13.168L11.9141 10.5L14.582 7.83203C14.9725 7.44153 14.9725 6.8085 14.582 6.41797Z" fill="black"/>
</svg>
