<svg width="21" height="21" viewBox="0 0 21 21" fill="none" xmlns="http://www.w3.org/2000/svg">
<path d="M10.5 0C8.4233 0 6.39323 0.615814 4.66652 1.76957C2.9398 2.92332 1.59399 4.5632 0.799269 6.48182C0.00454949 8.40045 -0.203385 10.5116 0.201759 12.5484C0.606904 14.5852 1.60693 16.4562 3.07538 17.9246C4.54383 19.3931 6.41475 20.3931 8.45155 20.7982C10.4884 21.2034 12.5996 20.9954 14.5182 20.2007C16.4368 19.406 18.0767 18.0602 19.2304 16.3335C20.3842 14.6068 21 12.5767 21 10.5C20.9947 7.71686 19.8867 5.04925 17.9187 3.08127C15.9508 1.1133 13.2831 0.0053368 10.5 0V0ZM15.2856 10.813C15.2415 10.9108 15.18 10.9998 15.1038 11.0755L11.6813 14.4981C11.6079 14.5735 11.5199 14.633 11.4227 14.6729C11.3254 14.7129 11.221 14.7324 11.1159 14.7303C11.0092 14.7326 10.9032 14.7132 10.8043 14.6733C10.7054 14.6333 10.6156 14.5737 10.5404 14.4981C10.3893 14.3467 10.3045 14.1415 10.3045 13.9276C10.3045 13.7138 10.3893 13.5086 10.5404 13.3572L12.5899 11.3077H6.46154C6.24733 11.3077 6.04189 11.2226 5.89042 11.0711C5.73895 10.9197 5.65385 10.7142 5.65385 10.5C5.65385 10.2858 5.73895 10.0803 5.89042 9.92887C6.04189 9.7774 6.24733 9.69231 6.46154 9.69231H12.5899L10.5404 7.64279C10.4012 7.48914 10.3264 7.28785 10.3315 7.08058C10.3366 6.87331 10.4212 6.67594 10.5678 6.52934C10.7144 6.38273 10.9118 6.29812 11.119 6.29301C11.3263 6.28791 11.5276 6.36271 11.6813 6.50192L15.1038 9.92452C15.18 10.0002 15.2415 10.0891 15.2856 10.187C15.3664 10.3878 15.3664 10.6122 15.2856 10.813Z" fill="black"/>
</svg>
