<svg width="28" height="29" viewBox="0 0 28 29" fill="none" xmlns="http://www.w3.org/2000/svg">
<path d="M19.4546 26.6038C19.4546 26.85 19.3588 27.0862 19.1883 27.2603C19.0178 27.4344 18.7866 27.5322 18.5455 27.5322H9.45468C9.21358 27.5322 8.98235 27.4344 8.81187 27.2603C8.64138 27.0862 8.5456 26.85 8.5456 26.6038C8.5456 26.3575 8.64138 26.1214 8.81187 25.9473C8.98235 25.7731 9.21358 25.6753 9.45468 25.6753H18.5455C18.7866 25.6753 19.0178 25.7731 19.1883 25.9473C19.3588 26.1214 19.4546 26.3575 19.4546 26.6038ZM24 11.7485C24.003 13.2954 23.6607 14.8228 22.9991 16.2144C22.3375 17.606 21.374 18.8253 20.1818 19.7796C19.9567 19.9532 19.7739 20.1776 19.6477 20.4353C19.5216 20.693 19.4555 20.977 19.4546 21.2651V21.9615C19.4546 22.454 19.263 22.9263 18.922 23.2745C18.5811 23.6228 18.1186 23.8184 17.6364 23.8184H10.3638C9.88156 23.8184 9.4191 23.6228 9.07813 23.2745C8.73716 22.9263 8.5456 22.454 8.5456 21.9615V21.2651C8.54483 20.9811 8.48103 20.7009 8.359 20.4456C8.23698 20.1903 8.0599 19.9666 7.84106 19.7912C6.65139 18.8435 5.68765 17.6326 5.02238 16.2495C4.3571 14.8665 4.00761 13.3474 4.0002 11.8065C3.96611 6.27056 8.35242 1.66309 13.7615 1.53542C15.095 1.50132 16.4217 1.74038 17.6634 2.23849C18.905 2.7366 20.0363 3.48367 20.9907 4.43561C21.945 5.38755 22.7029 6.52507 23.2198 7.78106C23.7366 9.03705 24.0019 10.386 24 11.7485ZM18.2841 12.0154C18.1118 11.841 17.879 11.7432 17.6364 11.7432C17.3938 11.7432 17.161 11.841 16.9887 12.0154L14.0001 15.0793L11.0115 12.0154C10.8349 11.8673 10.6106 11.7917 10.3824 11.8031C10.1542 11.8146 9.93827 11.9123 9.77669 12.0773C9.61511 12.2423 9.51941 12.4628 9.50821 12.6959C9.497 12.929 9.57108 13.158 9.71604 13.3384L13.091 16.7737V21.033C13.091 21.2793 13.1868 21.5154 13.3573 21.6895C13.5278 21.8637 13.759 21.9615 14.0001 21.9615C14.2412 21.9615 14.4724 21.8637 14.6429 21.6895C14.8134 21.5154 14.9092 21.2793 14.9092 21.033V16.7737L18.2841 13.3384C18.4548 13.1624 18.5506 12.9247 18.5506 12.6769C18.5506 12.4292 18.4548 12.1914 18.2841 12.0154Z" fill="#FFDE45"/>
</svg>
