<svg width="33" height="33" viewBox="0 0 33 33" fill="none" xmlns="http://www.w3.org/2000/svg">
<path d="M28.5 6.53223H4.5C4.23478 6.53223 3.98043 6.63758 3.79289 6.82512C3.60536 7.01266 3.5 7.26701 3.5 7.53223V24.5322C3.5 25.0627 3.71071 25.5714 4.08579 25.9464C4.46086 26.3215 4.96957 26.5322 5.5 26.5322H27.5C28.0304 26.5322 28.5391 26.3215 28.9142 25.9464C29.2893 25.5714 29.5 25.0627 29.5 24.5322V7.53223C29.5 7.26701 29.3946 7.01266 29.2071 6.82512C29.0196 6.63758 28.7652 6.53223 28.5 6.53223ZM12.8375 16.5322L5.5 23.2572V9.80723L12.8375 16.5322ZM14.3125 17.8947L15.825 19.2697C16.0093 19.4384 16.2501 19.5319 16.5 19.5319C16.7499 19.5319 16.9907 19.4384 17.175 19.2697L18.6875 17.8947L25.925 24.5322H7.075L14.3125 17.8947ZM20.1625 16.5322L27.5 9.80723V23.2572L20.1625 16.5322Z" fill="black"/>
</svg>
