<svg width="28" height="28" viewBox="0 0 28 28" fill="none" xmlns="http://www.w3.org/2000/svg">
<path d="M14 1C11.3488 1.00307 8.80697 2.08025 6.93225 3.9952C5.05754 5.91016 4.00301 8.50652 4 11.2147C4 19.9552 13.0909 26.5599 13.4773 26.8385C13.6321 26.9438 13.814 27 14 27C14.186 27 14.3679 26.9438 14.5227 26.8385C14.9091 26.5599 24 19.9552 24 11.2147C23.997 8.50652 22.9425 5.91016 21.0677 3.9952C19.193 2.08025 16.6512 1.00307 14 1ZM14 7.50025C14.7192 7.50025 15.4223 7.7181 16.0203 8.12625C16.6183 8.53439 17.0843 9.11451 17.3596 9.79323C17.6348 10.472 17.7068 11.2188 17.5665 11.9393C17.4262 12.6599 17.0799 13.3217 16.5713 13.8412C16.0627 14.3607 15.4148 14.7144 14.7094 14.8577C14.004 15.0011 13.2729 14.9275 12.6084 14.6464C11.944 14.3652 11.376 13.8891 10.9765 13.2783C10.5769 12.6675 10.3636 11.9493 10.3636 11.2147C10.3636 10.2296 10.7468 9.28477 11.4287 8.58818C12.1107 7.89159 13.0356 7.50025 14 7.50025Z" fill="#FF6D33"/>
</svg>
