<svg width="50" height="51" viewBox="0 0 50 51" fill="none" xmlns="http://www.w3.org/2000/svg">
<path fill-rule="evenodd" clip-rule="evenodd" d="M45.1523 8.0233C43.9863 7.84753 43.0231 6.96866 42.6682 5.67965C42.4655 4.85937 42.0092 4.15627 41.4009 3.51177C40.1842 2.39853 38.5112 2.22276 37.1425 3.04304C35.6216 3.9805 34.9119 5.85542 35.1147 7.61316C35.3175 9.31231 34.8612 11.0115 33.7459 12.0661L12.0991 33.3348C10.9838 34.448 9.56435 34.6238 8.0435 34.2136C6.62403 33.8621 1.35174 33.8621 0.895489 38.4322C0.540623 41.7133 2.8726 42.7094 4.74832 43.0023C5.9143 43.1781 6.87751 44.057 7.23237 45.346C7.43515 46.1663 7.89141 46.8694 8.49975 47.5139C9.71643 48.6271 11.3894 48.8029 12.7581 47.9826C14.279 47.0452 14.9887 45.1702 14.7859 43.4125C14.5832 41.7133 15.0394 40.0142 16.1547 38.9595L37.7508 17.6909C38.8661 16.5776 40.2856 16.4019 41.8064 16.812C43.2259 17.1636 48.4982 17.1636 48.9544 12.5934C49.36 9.31231 47.0787 8.31626 45.1523 8.0233Z" fill="#FF6D33"/>
</svg>
