<svg width="50" height="51" viewBox="0 0 50 51" fill="none" xmlns="http://www.w3.org/2000/svg">
<g clip-path="url(#clip0_4938_219)">
<path d="M42.0704 38.5782L41.9134 38.0516L41.5993 37.209L41.3899 36.6823L40.814 35.6291L40.0287 34.6285L38.9816 33.6805L37.7775 32.5746L36.7827 31.6267L35.8404 30.5734L35.0551 29.5201L34.3221 28.4142L33.5368 26.9396L33.0656 25.939L32.4898 24.8331L31.7568 23.6218L30.9192 22.5159L30.3433 21.9366L29.7674 21.41L28.9821 20.8307L28.0397 20.4094L26.8356 19.9881L25.6315 19.8301H24.375L23.1708 19.9881L21.4432 20.62L19.7679 21.7786L18.6684 22.8846L17.9878 23.9378L17.3072 25.1491L16.4172 26.9923L15.5796 28.6248L14.6372 29.8888L13.4854 31.3633L10.0825 34.5231L9.76835 34.7865L8.98305 35.8924L8.3548 37.1563L7.98833 38.7362L7.77892 40.1581L7.72656 41.738L7.88362 42.7913L8.3548 44.2658L9.0354 45.6351L9.76835 46.583L10.7107 47.531L11.9672 48.3736L13.4331 49.0582L14.5325 49.3215L16.2078 49.3742L17.8308 49.0055L18.8255 48.5316L19.2443 48.2156L20.1867 47.689L21.0767 47.1623L21.862 46.6884L22.6997 46.3197L23.3803 46.0037L24.1656 45.7931L25.0032 45.7404L25.9979 45.8984L26.7309 46.0564L27.935 46.6357L29.4009 47.373L30.605 48.1629L31.7045 48.7949L32.8039 49.2689L33.8509 49.4795L34.741 49.5322L35.4739 49.4795L36.6257 49.1635L38.0916 48.4789L39.1386 47.7416L40.2381 46.6357L41.0234 45.5824L41.704 44.1605L42.1228 42.7913L42.2799 41.6327V40.4214L42.2275 39.7368L42.0704 38.5782Z" fill="#FF6D33"/>
<path d="M37.8912 10.8167C38.3596 6.36221 36.2218 2.48325 33.1163 2.1528C30.0107 1.82235 27.1135 5.16553 26.645 9.62C26.1766 14.0745 28.3144 17.9534 31.4199 18.2839C34.5255 18.6143 37.4228 15.2712 37.8912 10.8167Z" fill="#FF6D33"/>
<path d="M18.5928 18.2622C21.6984 17.9318 23.8362 14.0528 23.3678 9.59836C22.8993 5.14388 20.0021 1.8007 16.8965 2.13115C13.791 2.46161 11.6532 6.34056 12.1216 10.795C12.59 15.2495 15.4873 18.5927 18.5928 18.2622Z" fill="#FF6D33"/>
<path d="M48.2599 24.0241C49.2217 19.6804 47.5304 15.6056 44.4823 14.9227C41.4342 14.2398 38.1836 17.2074 37.2219 21.5511C36.2601 25.8948 37.9514 29.9696 40.9995 30.6525C44.0476 31.3354 47.2982 28.3678 48.2599 24.0241Z" fill="#FF6D33"/>
<path d="M9.00182 30.6476C12.0499 29.9647 13.7412 25.8899 12.7795 21.5462C11.8177 17.2026 8.56712 14.2349 5.51904 14.9178C2.47096 15.6007 0.779648 19.6755 1.74139 24.0192C2.70314 28.3629 5.95374 31.3305 9.00182 30.6476Z" fill="#FF6D33"/>
</g>
<defs>
<clipPath id="clip0_4938_219">
<rect width="50" height="50" fill="white" transform="translate(0 0.532227)"/>
</clipPath>
</defs>
</svg>
