<svg width="50" height="51" viewBox="0 0 50 51" fill="none" xmlns="http://www.w3.org/2000/svg">
<g clip-path="url(#clip0_4938_139)">
<path d="M48 47.6563V36.9637C48 35.3768 46.8163 34.0878 45.3541 34.0878H45.1407C44.3883 34.0878 43.692 34.4687 43.1619 35.0497C41.109 37.3128 37.0659 36.1117 37.1176 31.4488C37.0659 26.781 41.1201 25.5799 43.1729 27.8479C43.7029 28.4362 44.397 28.8098 45.1517 28.8098H45.3538C46.8138 28.8098 47.9997 27.5232 47.9997 25.9339V15.2338C47.9997 13.6469 46.816 12.3579 45.3538 12.3579H35.5162C34.0562 12.3579 32.8703 11.0713 32.8703 9.482V9.22566C32.8703 8.38832 33.2207 7.61929 33.7844 7.05044C34.474 6.36197 34.894 5.45139 34.894 4.45781C34.894 2.2899 32.8995 0.532227 30.4445 0.532227C27.9896 0.532227 25.9951 2.28753 25.9951 4.45781C25.9951 5.45876 26.4151 6.36447 27.1046 7.05044C27.6684 7.61194 28.0187 8.38826 28.0187 9.22566V9.482C28.0187 11.0689 26.8351 12.3579 25.3729 12.3579H15.5284C14.0684 12.3579 12.8825 13.6444 12.8825 15.2338V25.9339C12.8825 27.5208 11.6988 28.8098 10.2366 28.8098H10.0344C9.28199 28.8098 8.58573 28.4289 8.05564 27.8479C6.00274 25.5726 1.95552 26.7737 2.00037 31.4488C1.95545 36.1117 5.99612 37.3104 8.04932 35.0497C8.57939 34.4613 9.27342 34.0878 10.0281 34.0878H10.2347C11.6947 34.0878 12.8806 35.3744 12.8806 36.9637V47.6563C12.8806 49.2432 14.0643 50.5322 15.5265 50.5322H25.371C26.831 50.5322 28.0169 49.2457 28.0169 47.6563V47.3927C28.0169 46.5553 27.6665 45.7863 27.1028 45.2175C26.4133 44.529 25.9932 43.6184 25.9932 42.6297C25.9932 40.4618 27.9878 38.7041 30.4427 38.7041C32.8976 38.7041 34.8922 40.4594 34.8922 42.6297C34.8922 43.6233 34.4722 44.5291 33.7826 45.2175C33.2188 45.779 32.8685 46.5553 32.8685 47.3927V47.6563C32.8685 49.2432 34.0522 50.5322 35.5144 50.5322H45.352C46.8119 50.5322 47.9979 49.2457 47.9979 47.6563H48Z" fill="#FF6D33"/>
</g>
<defs>
<clipPath id="clip0_4938_139">
<rect width="50" height="50" fill="white" transform="translate(0 0.532227)"/>
</clipPath>
</defs>
</svg>
