<svg width="28" height="28" viewBox="0 0 28 28" fill="none" xmlns="http://www.w3.org/2000/svg">
<path d="M25.8223 16.4796L24.1729 14.2878C24.184 14.0886 24.1729 13.8782 24.1729 13.7233L25.8223 11.5204C25.9043 11.4132 25.9601 11.2883 25.9851 11.1556C26.0101 11.023 26.0036 10.8863 25.9662 10.7566C25.6872 9.73606 25.2819 8.75434 24.7596 7.83424C24.6923 7.71736 24.5997 7.61697 24.4886 7.54038C24.3775 7.46379 24.2508 7.41291 24.1176 7.39146L21.4056 7.00402L20.996 6.59445L20.6085 3.8824C20.5869 3.75066 20.5371 3.62514 20.4626 3.51435C20.3881 3.40356 20.2907 3.31012 20.1768 3.24036C19.2519 2.72 18.2668 2.31479 17.2434 2.03378C17.1137 1.99639 16.977 1.98994 16.8444 2.01493C16.7117 2.03992 16.5868 2.09566 16.4796 2.17768L14.2878 3.81598H13.7122L11.5204 2.17768C11.4132 2.09566 11.2883 2.03992 11.1556 2.01493C11.023 1.98994 10.8863 1.99639 10.7566 2.03378C9.73606 2.31275 8.75434 2.71809 7.83424 3.24036C7.71736 3.30775 7.61697 3.40034 7.54038 3.5114C7.46379 3.62246 7.41291 3.7492 7.39146 3.8824L7.00402 6.59445L6.59445 7.00402L3.8824 7.39146C3.7492 7.41291 3.62246 7.46379 3.5114 7.54038C3.40034 7.61697 3.30775 7.71736 3.24036 7.83424C2.71809 8.75434 2.31275 9.73606 2.03378 10.7566C1.99639 10.8863 1.98994 11.023 2.01493 11.1556C2.03992 11.2883 2.09566 11.4132 2.17768 11.5204L3.82705 13.7122V14.2767L2.17768 16.4796C2.09566 16.5868 2.03992 16.7117 2.01493 16.8444C1.98994 16.977 1.99639 17.1137 2.03378 17.2434C2.31275 18.2639 2.71809 19.2457 3.24036 20.1658C3.30775 20.2826 3.40034 20.383 3.5114 20.4596C3.62246 20.5362 3.7492 20.5871 3.8824 20.6085L6.59445 20.996L7.00402 21.4056L7.39146 24.1176C7.41291 24.2508 7.46379 24.3775 7.54038 24.4886C7.61697 24.5997 7.71736 24.6923 7.83424 24.7596C8.75434 25.2819 9.73606 25.6872 10.7566 25.9662C10.8322 25.9881 10.9104 25.9993 10.9891 25.9994C11.1811 26.0019 11.3683 25.9395 11.5204 25.8223L13.7122 24.184H14.2878L16.4796 25.8223C16.5868 25.9043 16.7117 25.9601 16.8444 25.9851C16.977 26.0101 17.1137 26.0036 17.2434 25.9662C18.2646 25.6893 19.2466 25.2838 20.1658 24.7596C20.2826 24.6923 20.383 24.5997 20.4596 24.4886C20.5362 24.3775 20.5871 24.2508 20.6085 24.1176L20.996 21.3945C21.1288 21.2616 21.2838 21.1177 21.3945 20.996L24.1176 20.6085C24.2508 20.5871 24.3775 20.5362 24.4886 20.4596C24.5997 20.383 24.6923 20.2826 24.7596 20.1658C25.2819 19.2457 25.6872 18.2639 25.9662 17.2434C26.0036 17.1137 26.0101 16.977 25.9851 16.8444C25.9601 16.7117 25.9043 16.5868 25.8223 16.4796ZM14 18.8706C13.0367 18.8706 12.095 18.585 11.294 18.0498C10.4931 17.5146 9.86878 16.7539 9.50014 15.8639C9.13149 14.9739 9.03504 13.9946 9.22297 13.0498C9.4109 12.105 9.87478 11.2371 10.556 10.556C11.2371 9.87478 12.105 9.4109 13.0498 9.22297C13.9946 9.03504 14.9739 9.13149 15.8639 9.50014C16.7539 9.86878 17.5146 10.4931 18.0498 11.294C18.585 12.095 18.8706 13.0367 18.8706 14C18.8706 15.2918 18.3575 16.5306 17.444 17.444C16.5306 18.3575 15.2918 18.8706 14 18.8706Z" fill="#FF6D33"/>
</svg>
