<svg width="33" height="33" viewBox="0 0 33 33" fill="none" xmlns="http://www.w3.org/2000/svg">
<path d="M28.25 20.3317L22.3875 17.8317C22.085 17.6962 21.753 17.6399 21.4227 17.6684C21.0924 17.6968 20.7749 17.809 20.5 17.9942L17.3625 20.0817C15.4503 19.153 13.9021 17.6136 12.9625 15.7067L15.0375 12.5317C15.2216 12.2566 15.334 11.9398 15.3645 11.6102C15.3951 11.2806 15.3428 10.9485 15.2125 10.6442L12.7 4.78175C12.5247 4.38589 12.2278 4.05617 11.8525 3.8404C11.4771 3.62463 11.0428 3.53404 10.6125 3.58175C8.92449 3.80288 7.37421 4.62946 6.2499 5.90782C5.12559 7.18618 4.50375 8.82932 4.5 10.5317C4.5 20.4567 12.575 28.5317 22.5 28.5317C24.2024 28.528 25.8456 27.9062 27.1239 26.7818C28.4023 25.6575 29.2289 24.1073 29.45 22.4192C29.4977 21.9889 29.4071 21.5546 29.1913 21.1793C28.9756 20.8039 28.6459 20.5071 28.25 20.3317Z" fill="black"/>
<path d="M20.1736 6.49518C21.6957 6.91103 23.0831 7.71659 24.1989 8.83235C25.3146 9.94812 26.1202 11.3355 26.5361 12.8577C26.5912 13.0714 26.7156 13.2608 26.8897 13.3965C27.0638 13.5322 27.2778 13.6064 27.4986 13.6077C27.5874 13.6075 27.6757 13.5949 27.7611 13.5702C27.8882 13.5369 28.0074 13.4786 28.1117 13.3987C28.216 13.3188 28.3033 13.2189 28.3685 13.1048C28.4337 12.9907 28.4754 12.8647 28.4913 12.7343C28.5072 12.6039 28.4969 12.4716 28.4611 12.3452C27.9611 10.481 26.9794 8.78125 25.6147 7.41651C24.25 6.05178 22.5502 5.07014 20.6861 4.57018C20.5556 4.52265 20.4167 4.50281 20.2782 4.51192C20.1396 4.52102 20.0045 4.55887 19.8814 4.62306C19.7583 4.68724 19.6499 4.77635 19.5632 4.88472C19.4764 4.99309 19.4131 5.11834 19.3774 5.25249C19.3417 5.38665 19.3343 5.52677 19.3557 5.66394C19.3771 5.80111 19.4268 5.93232 19.5017 6.04922C19.5766 6.16611 19.675 6.26613 19.7907 6.34291C19.9064 6.41969 20.0367 6.47155 20.1736 6.49518Z" fill="black"/>
<path d="M19.1384 10.3575C19.9845 10.5891 20.7557 11.0371 21.376 11.6574C21.9963 12.2777 22.4443 13.0489 22.6759 13.895C22.7291 14.1098 22.8529 14.3004 23.0274 14.4364C23.202 14.5724 23.4171 14.6459 23.6384 14.645C23.7232 14.6458 23.8076 14.6332 23.8884 14.6075C24.0166 14.5756 24.1372 14.5183 24.2429 14.439C24.3486 14.3596 24.4373 14.2599 24.5037 14.1457C24.5701 14.0314 24.613 13.905 24.6297 13.7739C24.6464 13.6428 24.6366 13.5097 24.6009 13.3825C24.2852 12.1944 23.6611 11.1108 22.7919 10.2415C21.9226 9.37225 20.839 8.74816 19.6509 8.43248C19.5205 8.38496 19.3815 8.36512 19.243 8.37422C19.1045 8.38333 18.9694 8.42118 18.8463 8.48536C18.7232 8.54954 18.6148 8.63866 18.528 8.74703C18.4412 8.85539 18.378 8.98064 18.3423 9.1148C18.3065 9.24895 18.2991 9.38908 18.3205 9.52625C18.342 9.66341 18.3917 9.79462 18.4666 9.91152C18.5415 10.0284 18.6399 10.1284 18.7555 10.2052C18.8712 10.282 19.0016 10.3339 19.1384 10.3575Z" fill="black"/>
</svg>
