<svg width="50" height="51" viewBox="0 0 50 51" fill="none" xmlns="http://www.w3.org/2000/svg">
<path d="M22.1104 43.6346C23.4625 40.9409 24.4938 33.32 25 28.8783C25.5062 33.3221 26.5375 40.9408 27.8896 43.6346C29.8604 47.5576 34.3104 50.1472 37.8086 49.4053C39.2461 49.1345 40.469 48.197 41.1065 46.8803C41.8253 45.3844 41.8002 43.4948 41.0565 41.5886C42.9627 42.3323 44.8544 42.3594 46.3503 41.6386L46.3482 41.6386C47.6649 41.0011 48.6024 39.7782 48.8732 38.3407C49.6148 34.8407 47.0253 30.3908 43.1025 28.4217C40.4087 27.0696 32.79 26.0384 28.3462 25.5321C32.79 25.0259 40.4086 23.9946 43.1025 22.6425C47.0255 20.6738 49.6151 16.2217 48.8732 12.7236C48.6024 11.2861 47.6649 10.0631 46.3482 9.42566C44.8523 8.70688 42.9627 8.73189 41.0565 9.47566C41.8002 7.56941 41.8273 5.67773 41.1065 4.18189L41.1065 4.18397C40.469 2.86728 39.246 1.92978 37.8086 1.65896C35.2544 1.1173 32.192 2.35272 29.9584 4.58605C29.1209 5.41731 28.423 6.37773 27.8897 7.42979C26.5375 10.1236 25.5063 17.7423 25 22.1861C24.4938 17.7423 23.4625 10.1237 22.1104 7.42979C20.1396 3.50685 15.6896 0.917247 12.1915 1.65911L12.1894 1.65911C11.2769 1.84036 10.4373 2.28413 9.77275 2.93618C9.41234 3.29868 9.11441 3.72162 8.8936 4.18408C8.17483 5.67992 8.19984 7.56952 8.94361 9.47784C7.03736 8.73411 5.14568 8.70702 3.64983 9.42784L3.64983 9.42576C2.33313 10.0612 1.39772 11.2862 1.12689 12.7237C0.385238 16.2237 2.97479 20.6736 6.89757 22.6426C9.59342 23.9947 17.2123 25.026 21.6539 25.5322C17.2101 26.0385 9.59144 27.0697 6.89757 28.4218C5.84546 28.9552 4.88508 29.6531 4.05383 30.4906C1.82049 32.7239 0.585078 35.7864 1.12673 38.3429L1.12673 38.3408C1.39757 39.7783 2.33505 41.0012 3.64967 41.6387C5.14551 42.3575 7.03512 42.3325 8.94344 41.5887C8.19971 43.4949 8.17261 45.3866 8.89344 46.8825L8.89344 46.8804C9.53094 48.1971 10.7539 49.1346 12.1914 49.4054C15.6914 50.1471 20.1413 47.5595 22.1104 43.6346Z" fill="#FF6D33"/>
</svg>
